<svg xmlns="http://www.w3.org/2000/svg" width="329" height="303" viewBox="0 0 329 303" version="1.1"><path d="" stroke="none" fill="#14846c" fill-rule="evenodd"/><path d="M 191.914 14.603 C 187.030 20.487, 189.793 204.624, 194.775 205.272 C 201.678 206.169, 201.310 211.837, 200.506 117 C 199.581 7.799, 199.396 5.590, 191.914 14.603 M 70.299 40.750 C 67.695 47.886, 54.993 60.659, 52.740 58.407 C 52.490 58.156, 51.716 58.638, 51.020 59.476 C 49.640 61.139, 51.121 63.993, 53.372 64.007 C 56.358 64.027, 65.997 73.302, 68.474 78.537 C 71.590 85.124, 72.043 85.206, 74.802 79.682 C 77.498 74.284, 84.032 68.192, 90.283 65.247 C 96.289 62.418, 95.604 60.291, 87.447 56.431 C 82.736 54.203, 81.267 52.771, 77.223 46.465 C 72.232 38.684, 71.326 37.935, 70.299 40.750 M 113.338 86.227 C 105.484 91.806, 104.509 97.709, 110.459 103.659 C 114.889 108.089, 118.551 108.116, 122.684 103.750 C 129.110 96.961, 129.031 93.528, 122.331 88.316 C 116.694 83.931, 116.600 83.909, 113.338 86.227 M 73.405 122.573 C 71.577 126.949, 72.342 129.797, 75.564 130.606 C 81.095 131.994, 83.025 126.844, 78.927 121.635 C 76.178 118.140, 75.187 118.308, 73.405 122.573 M 236.671 136.472 C 235.087 138.056, 235.285 139.596, 238.439 150.250 L 240.142 156 250.006 156 C 261.964 156, 264.832 155.091, 265.641 151.046 C 266.346 147.518, 267.166 147.193, 277 146.538 C 290.418 145.645, 292.481 144.275, 288.250 139.067 C 284.998 135.064, 240.326 132.817, 236.671 136.472 M 101.371 152.476 C 100.580 154.537, 101.351 190.684, 102.204 191.537 C 102.587 191.920, 110.573 191.904, 119.950 191.502 L 137 190.771 137 170.885 L 137 151 119.469 151 C 104.935 151, 101.840 151.252, 101.371 152.476 M 59.750 160.789 L 51 161.078 51 165.980 C 51 172.362, 50.503 172.197, 69.299 172.068 C 92.055 171.911, 92 171.926, 92 165.997 C 92 160.142, 90.965 159.725, 77.575 160.187 C 72.584 160.359, 64.563 160.630, 59.750 160.789 M 173.350 160.716 C 170.031 161.133, 167.997 167.597, 170.422 170.022 C 171.565 171.165, 179.666 171.351, 180.342 170.250 C 182.948 166.002, 179.841 157.429, 176.685 160.160 C 176.583 160.248, 175.082 160.498, 173.350 160.716 M 28.112 162.059 C 25.698 162.545, 23.504 163.163, 23.235 163.432 C 20.183 166.483, 21.648 195.094, 25.548 208.603 C 30.029 224.129, 45.951 248.716, 49.333 245.333 C 51.074 243.592, 48.579 232.146, 45.010 225.500 C 36.892 210.386, 33.086 196.638, 33.036 182.250 L 33 172 35.750 171.986 C 42.137 171.955, 43.124 171.133, 42.799 166.120 L 42.500 161.500 37.500 161.338 C 34.750 161.248, 30.525 161.573, 28.112 162.059 M 147 165.955 C 147 173.821, 161.173 175.434, 161.761 167.634 C 162.181 162.062, 160.838 161, 153.378 161 L 147 161 147 165.955 M 239.402 166.395 C 239.108 167.162, 239.009 169.524, 239.183 171.645 L 239.500 175.500 245.917 175.839 C 249.446 176.025, 254.338 175.876, 256.788 175.509 L 261.242 174.841 260.697 170.776 C 259.949 165.203, 241.330 161.372, 239.402 166.395 M 56.500 180.883 L 53.500 181.530 53.819 188.515 C 53.994 192.357, 54.574 199.550, 55.108 204.500 C 55.641 209.450, 56.487 219.951, 56.987 227.835 C 58.030 244.279, 57.665 243.568, 68.077 249.423 C 83.594 258.149, 90.515 259.744, 92.304 255.005 C 94.234 249.894, 121.530 248.971, 126.087 253.863 C 128.172 256.101, 132.668 256.168, 135.500 254.005 C 136.050 253.585, 139.352 252.213, 142.838 250.955 C 149.914 248.401, 150.381 247.716, 151.320 238.500 C 151.656 235.200, 153.025 229.350, 154.361 225.500 C 155.974 220.855, 157.030 214.968, 157.501 208 C 158.209 197.516, 158.832 190.277, 159.352 186.500 C 159.940 182.217, 158.305 181, 151.965 181 L 146 181 146 195.875 C 146 220.678, 148.283 218.725, 118.781 219.163 C 90.930 219.577, 93.585 221.596, 93.189 199.702 C 92.928 185.222, 92.621 182.302, 91.248 181.250 C 89.509 179.917, 62.316 179.630, 56.500 180.883 M 242.206 184.742 C 234.429 185.182, 234.563 184.926, 232.527 203.202 C 230.449 221.853, 230.436 221.709, 234.388 225.365 C 237.856 228.574, 239.721 235.265, 239.095 242.255 C 238.812 245.409, 244.210 260.098, 250.761 274 C 253.223 279.225, 255.865 284.962, 256.632 286.750 L 258.027 290 266.374 290 C 278.768 290, 283.830 289.112, 284.560 286.810 C 286.535 280.590, 285.611 246.944, 283.364 243.229 C 278.516 235.214, 277.715 233.430, 275.445 225.599 C 274.155 221.145, 271.501 210.370, 269.550 201.655 C 267.598 192.941, 265.749 185.403, 265.442 184.905 C 264.907 184.040, 255.739 183.976, 242.206 184.742 M 104.750 200.716 C 101.968 201.138, 101.569 202.045, 101.992 207 C 102.312 210.753, 103.261 210.968, 119.550 210.985 C 136.270 211.002, 137 210.748, 137 204.907 C 137 200.180, 121.547 198.172, 104.750 200.716 M 192.388 214.083 C 189.110 215.034, 186.204 218.717, 181.667 227.670 C 178.776 233.375, 177.532 233.966, 168.372 233.986 C 161.170 234.002, 159.732 235.178, 160.185 240.680 L 160.500 244.500 195.500 244.500 L 230.500 244.500 230.810 241.296 C 231.395 235.253, 229.839 234.002, 221.715 233.985 C 212.764 233.966, 213.112 234.214, 208.129 224.277 C 202.886 213.824, 199.915 211.900, 192.388 214.083 M 203.106 254.157 C 200.779 255.017, 200.401 260.690, 200.934 286.750 L 201 290 210 290 C 214.950 290, 219 289.639, 219 289.198 C 219 268.476, 211.154 251.179, 203.106 254.157 M 222.294 254.677 C 221.963 255.539, 222.427 259.452, 223.326 263.372 C 224.225 267.293, 225.156 271.625, 225.394 273 C 225.789 275.279, 227.215 281.986, 228.539 287.800 C 229.046 290.023, 229.352 290.086, 237.782 289.696 L 246.500 289.293 246.533 285.696 C 246.551 283.719, 246.353 282.314, 246.092 282.574 C 245.547 283.120, 237.924 267.303, 238.211 266.218 C 238.545 264.950, 232.962 254.919, 231.709 254.538 C 227.144 253.150, 222.855 253.213, 222.294 254.677 M 158.113 256.583 C 156.951 258.061, 156 259.704, 156 260.234 C 156 260.764, 155.385 262.616, 154.633 264.349 C 153.881 266.082, 151.399 271.775, 149.118 277 C 144.345 287.931, 144.182 288.982, 147.250 289.050 C 148.488 289.078, 151.975 289.300, 155 289.543 C 161.279 290.048, 162.665 289.460, 163.405 285.979 C 163.695 284.615, 164.925 279.450, 166.140 274.500 C 167.355 269.550, 168.383 263.025, 168.424 260 L 168.500 254.500 164.363 254.198 C 160.874 253.943, 159.896 254.317, 158.113 256.583 M 179.175 256.750 C 178.588 258.262, 177.630 262.758, 177.046 266.739 C 176.463 270.721, 175.159 277.528, 174.149 281.865 L 172.313 289.751 181.656 289.926 L 191 290.100 191 273.984 C 191 255.092, 190.649 254, 184.586 254 C 180.773 254, 180.112 254.336, 179.175 256.750 M 58.729 256.709 C 58.487 257.144, 58.671 260.875, 59.138 265 C 59.605 269.125, 60.241 275.439, 60.550 279.032 C 60.859 282.625, 61.483 286.163, 61.935 286.896 C 64.485 291.020, 132.838 291.118, 135.124 287 C 136.715 284.134, 141.909 272.496, 141.934 271.740 C 141.948 271.321, 142.644 269.656, 143.480 268.039 C 146.190 262.798, 145.609 261.645, 140.604 262.331 C 131.956 263.516, 128.142 265.749, 126.899 270.355 C 124.555 279.039, 124.634 278.980, 115.081 279.177 C 97.640 279.536, 94.345 278.700, 92.697 273.500 C 91.593 270.018, 88.215 266, 86.392 266 C 84.610 266, 72.569 260.736, 72.165 259.780 C 71.980 259.344, 71.465 259.212, 71.021 259.487 C 70.576 259.762, 68.702 259.369, 66.856 258.613 C 61.423 256.390, 59.196 255.868, 58.729 256.709 M 103.122 260.026 C 101.052 260.900, 100.820 261.504, 101.335 264.679 C 102.806 273.741, 117.886 273.385, 117.978 264.285 C 118.016 260.521, 108.445 257.777, 103.122 260.026" stroke="none" fill="#04846c" fill-rule="evenodd"/></svg>